<?xml version="1.0" encoding="UTF-8" standalone="no"?>
<!DOCTYPE svg PUBLIC "-//W3C//DTD SVG 1.1//EN"
 "http://www.w3.org/Graphics/SVG/1.1/DTD/svg11.dtd">
<!-- Generated by graphviz version 2.46.1 (20210213.1702)
 -->
<!-- Pages: 1 -->
<svg width="1648pt" height="620pt"
 viewBox="0.00 0.00 1647.56 620.00" xmlns="http://www.w3.org/2000/svg" xmlns:xlink="http://www.w3.org/1999/xlink">
<g id="graph0" class="graph" transform="scale(1 1) rotate(0) translate(4 616)">
<polygon fill="white" stroke="transparent" points="-4,4 -4,-616 1643.56,-616 1643.56,4 -4,4"/>
<!-- [root] aws_cloudwatch_event_rule.trigger_rule -->
<g id="node1" class="node">
<title>[root] aws_cloudwatch_event_rule.trigger_rule</title>
<polygon fill="none" stroke="black" points="1361.5,-252 1123.5,-252 1123.5,-216 1361.5,-216 1361.5,-252"/>
<text text-anchor="middle" x="1242.5" y="-230.3" font-family="Times,serif" font-size="14.00">aws_cloudwatch_event_rule.trigger_rule</text>
</g>
<!-- [root] aws_codecommit_repository.source_repo -->
<g id="node4" class="node">
<title>[root] aws_codecommit_repository.source_repo</title>
<polygon fill="none" stroke="black" points="1194,-180 951,-180 951,-144 1194,-144 1194,-180"/>
<text text-anchor="middle" x="1072.5" y="-158.3" font-family="Times,serif" font-size="14.00">aws_codecommit_repository.source_repo</text>
</g>
<!-- [root] aws_cloudwatch_event_rule.trigger_rule&#45;&gt;[root] aws_codecommit_repository.source_repo -->
<g id="edge1" class="edge">
<title>[root] aws_cloudwatch_event_rule.trigger_rule&#45;&gt;[root] aws_codecommit_repository.source_repo</title>
<path fill="none" stroke="black" d="M1200.91,-215.88C1177.47,-206.22 1148,-194.09 1123.2,-183.88"/>
<polygon fill="black" stroke="black" points="1124.53,-180.64 1113.95,-180.07 1121.87,-187.11 1124.53,-180.64"/>
</g>
<!-- [root] aws_iam_role.trigger_role -->
<g id="node12" class="node">
<title>[root] aws_iam_role.trigger_role</title>
<polygon fill="none" stroke="black" points="1576,-180 1415,-180 1415,-144 1576,-144 1576,-180"/>
<text text-anchor="middle" x="1495.5" y="-158.3" font-family="Times,serif" font-size="14.00">aws_iam_role.trigger_role</text>
</g>
<!-- [root] aws_cloudwatch_event_rule.trigger_rule&#45;&gt;[root] aws_iam_role.trigger_role -->
<g id="edge2" class="edge">
<title>[root] aws_cloudwatch_event_rule.trigger_rule&#45;&gt;[root] aws_iam_role.trigger_role</title>
<path fill="none" stroke="black" d="M1304.07,-215.97C1340.19,-205.97 1385.99,-193.3 1423.74,-182.85"/>
<polygon fill="black" stroke="black" points="1424.95,-186.15 1433.66,-180.11 1423.09,-179.4 1424.95,-186.15"/>
</g>
<!-- [root] var.source_repo_branch -->
<g id="node28" class="node">
<title>[root] var.source_repo_branch</title>
<polygon fill="none" stroke="black" points="1352.5,-180 1212.5,-180 1212.5,-144 1358.5,-144 1358.5,-174 1352.5,-180"/>
<polyline fill="none" stroke="black" points="1352.5,-180 1352.5,-174 "/>
<polyline fill="none" stroke="black" points="1358.5,-174 1352.5,-174 "/>
<text text-anchor="middle" x="1285.5" y="-158.3" font-family="Times,serif" font-size="14.00">var.source_repo_branch</text>
</g>
<!-- [root] aws_cloudwatch_event_rule.trigger_rule&#45;&gt;[root] var.source_repo_branch -->
<g id="edge3" class="edge">
<title>[root] aws_cloudwatch_event_rule.trigger_rule&#45;&gt;[root] var.source_repo_branch</title>
<path fill="none" stroke="black" d="M1253.13,-215.7C1258.13,-207.56 1264.19,-197.69 1269.71,-188.7"/>
<polygon fill="black" stroke="black" points="1272.74,-190.46 1274.99,-180.1 1266.78,-186.79 1272.74,-190.46"/>
</g>
<!-- [root] aws_cloudwatch_event_target.target_pipeline -->
<g id="node2" class="node">
<title>[root] aws_cloudwatch_event_target.target_pipeline</title>
<polygon fill="none" stroke="black" points="1245,-396 980,-396 980,-360 1245,-360 1245,-396"/>
<text text-anchor="middle" x="1112.5" y="-374.3" font-family="Times,serif" font-size="14.00">aws_cloudwatch_event_target.target_pipeline</text>
</g>
<!-- [root] aws_cloudwatch_event_target.target_pipeline&#45;&gt;[root] aws_cloudwatch_event_rule.trigger_rule -->
<g id="edge4" class="edge">
<title>[root] aws_cloudwatch_event_target.target_pipeline&#45;&gt;[root] aws_cloudwatch_event_rule.trigger_rule</title>
<path fill="none" stroke="black" d="M1162.72,-359.9C1180.87,-351.54 1200.15,-339.81 1213.5,-324 1228.27,-306.5 1235.57,-281.31 1239.14,-262.18"/>
<polygon fill="black" stroke="black" points="1242.6,-262.71 1240.77,-252.27 1235.7,-261.57 1242.6,-262.71"/>
</g>
<!-- [root] aws_codepipeline.pipeline -->
<g id="node5" class="node">
<title>[root] aws_codepipeline.pipeline</title>
<polygon fill="none" stroke="black" points="959,-324 798,-324 798,-288 959,-288 959,-324"/>
<text text-anchor="middle" x="878.5" y="-302.3" font-family="Times,serif" font-size="14.00">aws_codepipeline.pipeline</text>
</g>
<!-- [root] aws_cloudwatch_event_target.target_pipeline&#45;&gt;[root] aws_codepipeline.pipeline -->
<g id="edge5" class="edge">
<title>[root] aws_cloudwatch_event_target.target_pipeline&#45;&gt;[root] aws_codepipeline.pipeline</title>
<path fill="none" stroke="black" d="M1055.56,-359.97C1022.29,-350.01 980.14,-337.41 945.31,-326.99"/>
<polygon fill="black" stroke="black" points="946.28,-323.62 935.7,-324.11 944.28,-330.33 946.28,-323.62"/>
</g>
<!-- [root] aws_codebuild_project.codebuild -->
<g id="node3" class="node">
<title>[root] aws_codebuild_project.codebuild</title>
<polygon fill="none" stroke="black" points="1067,-252 868,-252 868,-216 1067,-216 1067,-252"/>
<text text-anchor="middle" x="967.5" y="-230.3" font-family="Times,serif" font-size="14.00">aws_codebuild_project.codebuild</text>
</g>
<!-- [root] aws_codebuild_project.codebuild&#45;&gt;[root] aws_codecommit_repository.source_repo -->
<g id="edge6" class="edge">
<title>[root] aws_codebuild_project.codebuild&#45;&gt;[root] aws_codecommit_repository.source_repo</title>
<path fill="none" stroke="black" d="M993.19,-215.88C1006.79,-206.81 1023.67,-195.55 1038.36,-185.76"/>
<polygon fill="black" stroke="black" points="1040.34,-188.65 1046.72,-180.19 1036.45,-182.82 1040.34,-188.65"/>
</g>
<!-- [root] aws_ecr_repository.image_repo -->
<g id="node6" class="node">
<title>[root] aws_ecr_repository.image_repo</title>
<polygon fill="none" stroke="black" points="556.5,-180 366.5,-180 366.5,-144 556.5,-144 556.5,-180"/>
<text text-anchor="middle" x="461.5" y="-158.3" font-family="Times,serif" font-size="14.00">aws_ecr_repository.image_repo</text>
</g>
<!-- [root] aws_codebuild_project.codebuild&#45;&gt;[root] aws_ecr_repository.image_repo -->
<g id="edge7" class="edge">
<title>[root] aws_codebuild_project.codebuild&#45;&gt;[root] aws_ecr_repository.image_repo</title>
<path fill="none" stroke="black" d="M867.73,-217.31C864.62,-216.86 861.54,-216.42 858.5,-216 731.73,-198.33 697.06,-198.56 566.66,-180.13"/>
<polygon fill="black" stroke="black" points="567.09,-176.66 556.69,-178.72 566.1,-183.59 567.09,-176.66"/>
</g>
<!-- [root] aws_iam_role.codebuild_role -->
<g id="node10" class="node">
<title>[root] aws_iam_role.codebuild_role</title>
<polygon fill="none" stroke="black" points="752.5,-180 574.5,-180 574.5,-144 752.5,-144 752.5,-180"/>
<text text-anchor="middle" x="663.5" y="-158.3" font-family="Times,serif" font-size="14.00">aws_iam_role.codebuild_role</text>
</g>
<!-- [root] aws_codebuild_project.codebuild&#45;&gt;[root] aws_iam_role.codebuild_role -->
<g id="edge8" class="edge">
<title>[root] aws_codebuild_project.codebuild&#45;&gt;[root] aws_iam_role.codebuild_role</title>
<path fill="none" stroke="black" d="M893.52,-215.97C849.39,-205.8 793.23,-192.87 747.45,-182.33"/>
<polygon fill="black" stroke="black" points="748.08,-178.88 737.55,-180.05 746.51,-185.7 748.08,-178.88"/>
</g>
<!-- [root] var.container_name -->
<g id="node26" class="node">
<title>[root] var.container_name</title>
<polygon fill="none" stroke="black" points="926.5,-180 808.5,-180 808.5,-144 932.5,-144 932.5,-174 926.5,-180"/>
<polyline fill="none" stroke="black" points="926.5,-180 926.5,-174 "/>
<polyline fill="none" stroke="black" points="932.5,-174 926.5,-174 "/>
<text text-anchor="middle" x="870.5" y="-158.3" font-family="Times,serif" font-size="14.00">var.container_name</text>
</g>
<!-- [root] aws_codebuild_project.codebuild&#45;&gt;[root] var.container_name -->
<g id="edge9" class="edge">
<title>[root] aws_codebuild_project.codebuild&#45;&gt;[root] var.container_name</title>
<path fill="none" stroke="black" d="M943.52,-215.7C931.19,-206.8 915.98,-195.82 902.65,-186.2"/>
<polygon fill="black" stroke="black" points="904.36,-183.12 894.2,-180.1 900.26,-188.79 904.36,-183.12"/>
</g>
<!-- [root] aws_codebuild_project.codebuild&#45;&gt;[root] var.source_repo_branch -->
<g id="edge10" class="edge">
<title>[root] aws_codebuild_project.codebuild&#45;&gt;[root] var.source_repo_branch</title>
<path fill="none" stroke="black" d="M1044.88,-215.97C1092.61,-205.46 1153.8,-191.99 1202.53,-181.26"/>
<polygon fill="black" stroke="black" points="1203.4,-184.66 1212.42,-179.09 1201.9,-177.82 1203.4,-184.66"/>
</g>
<!-- [root] provider.aws -->
<g id="node22" class="node">
<title>[root] provider.aws</title>
<polygon fill="none" stroke="black" points="1155.5,-108 1076.4,-90 1155.5,-72 1234.6,-90 1155.5,-108"/>
<text text-anchor="middle" x="1155.5" y="-86.3" font-family="Times,serif" font-size="14.00">provider.aws</text>
</g>
<!-- [root] aws_codecommit_repository.source_repo&#45;&gt;[root] provider.aws -->
<g id="edge11" class="edge">
<title>[root] aws_codecommit_repository.source_repo&#45;&gt;[root] provider.aws</title>
<path fill="none" stroke="black" d="M1093.02,-143.7C1104.64,-133.89 1119.24,-121.58 1131.41,-111.32"/>
<polygon fill="black" stroke="black" points="1133.99,-113.72 1139.38,-104.6 1129.47,-108.37 1133.99,-113.72"/>
</g>
<!-- [root] var.source_repo_name -->
<g id="node29" class="node">
<title>[root] var.source_repo_name</title>
<polygon fill="none" stroke="black" points="1052.5,-108 918.5,-108 918.5,-72 1058.5,-72 1058.5,-102 1052.5,-108"/>
<polyline fill="none" stroke="black" points="1052.5,-108 1052.5,-102 "/>
<polyline fill="none" stroke="black" points="1058.5,-102 1052.5,-102 "/>
<text text-anchor="middle" x="988.5" y="-86.3" font-family="Times,serif" font-size="14.00">var.source_repo_name</text>
</g>
<!-- [root] aws_codecommit_repository.source_repo&#45;&gt;[root] var.source_repo_name -->
<g id="edge12" class="edge">
<title>[root] aws_codecommit_repository.source_repo&#45;&gt;[root] var.source_repo_name</title>
<path fill="none" stroke="black" d="M1051.74,-143.7C1041.26,-134.97 1028.39,-124.24 1017,-114.75"/>
<polygon fill="black" stroke="black" points="1018.95,-111.82 1009.03,-108.1 1014.47,-117.19 1018.95,-111.82"/>
</g>
<!-- [root] aws_codepipeline.pipeline&#45;&gt;[root] aws_codebuild_project.codebuild -->
<g id="edge13" class="edge">
<title>[root] aws_codepipeline.pipeline&#45;&gt;[root] aws_codebuild_project.codebuild</title>
<path fill="none" stroke="black" d="M900.5,-287.7C911.71,-278.88 925.5,-268.03 937.65,-258.47"/>
<polygon fill="black" stroke="black" points="940.06,-261.04 945.75,-252.1 935.73,-255.54 940.06,-261.04"/>
</g>
<!-- [root] aws_iam_role.codepipeline_role -->
<g id="node11" class="node">
<title>[root] aws_iam_role.codepipeline_role</title>
<polygon fill="none" stroke="black" points="1573.5,-252 1379.5,-252 1379.5,-216 1573.5,-216 1573.5,-252"/>
<text text-anchor="middle" x="1476.5" y="-230.3" font-family="Times,serif" font-size="14.00">aws_iam_role.codepipeline_role</text>
</g>
<!-- [root] aws_codepipeline.pipeline&#45;&gt;[root] aws_iam_role.codepipeline_role -->
<g id="edge14" class="edge">
<title>[root] aws_codepipeline.pipeline&#45;&gt;[root] aws_iam_role.codepipeline_role</title>
<path fill="none" stroke="black" d="M959.19,-290.6C965.38,-289.67 971.53,-288.78 977.5,-288 1148.18,-265.56 1194.76,-273.59 1369.45,-252.08"/>
<polygon fill="black" stroke="black" points="1370,-255.54 1379.49,-250.83 1369.14,-248.59 1370,-255.54"/>
</g>
<!-- [root] aws_s3_bucket.artifact_bucket -->
<g id="node16" class="node">
<title>[root] aws_s3_bucket.artifact_bucket</title>
<polygon fill="none" stroke="black" points="849.5,-252 665.5,-252 665.5,-216 849.5,-216 849.5,-252"/>
<text text-anchor="middle" x="757.5" y="-230.3" font-family="Times,serif" font-size="14.00">aws_s3_bucket.artifact_bucket</text>
</g>
<!-- [root] aws_codepipeline.pipeline&#45;&gt;[root] aws_s3_bucket.artifact_bucket -->
<g id="edge15" class="edge">
<title>[root] aws_codepipeline.pipeline&#45;&gt;[root] aws_s3_bucket.artifact_bucket</title>
<path fill="none" stroke="black" d="M848.9,-287.88C832.93,-278.64 813.04,-267.13 795.89,-257.21"/>
<polygon fill="black" stroke="black" points="797.62,-254.17 787.21,-252.19 794.12,-260.23 797.62,-254.17"/>
</g>
<!-- [root] aws_ecr_repository.image_repo&#45;&gt;[root] provider.aws -->
<g id="edge16" class="edge">
<title>[root] aws_ecr_repository.image_repo&#45;&gt;[root] provider.aws</title>
<path fill="none" stroke="black" d="M556.67,-145.09C559.64,-144.71 562.59,-144.34 565.5,-144 787.66,-117.93 845.74,-137.27 1067.5,-108 1080.4,-106.3 1094.27,-103.89 1107.09,-101.43"/>
<polygon fill="black" stroke="black" points="1107.98,-104.82 1117.11,-99.45 1106.62,-97.95 1107.98,-104.82"/>
</g>
<!-- [root] var.image_repo_name -->
<g id="node27" class="node">
<title>[root] var.image_repo_name</title>
<polygon fill="none" stroke="black" points="524.5,-108 392.5,-108 392.5,-72 530.5,-72 530.5,-102 524.5,-108"/>
<polyline fill="none" stroke="black" points="524.5,-108 524.5,-102 "/>
<polyline fill="none" stroke="black" points="530.5,-102 524.5,-102 "/>
<text text-anchor="middle" x="461.5" y="-86.3" font-family="Times,serif" font-size="14.00">var.image_repo_name</text>
</g>
<!-- [root] aws_ecr_repository.image_repo&#45;&gt;[root] var.image_repo_name -->
<g id="edge17" class="edge">
<title>[root] aws_ecr_repository.image_repo&#45;&gt;[root] var.image_repo_name</title>
<path fill="none" stroke="black" d="M461.5,-143.7C461.5,-135.98 461.5,-126.71 461.5,-118.11"/>
<polygon fill="black" stroke="black" points="465,-118.1 461.5,-108.1 458,-118.1 465,-118.1"/>
</g>
<!-- [root] aws_iam_policy.codebuild_policy -->
<g id="node7" class="node">
<title>[root] aws_iam_policy.codebuild_policy</title>
<polygon fill="none" stroke="black" points="661,-324 458,-324 458,-288 661,-288 661,-324"/>
<text text-anchor="middle" x="559.5" y="-302.3" font-family="Times,serif" font-size="14.00">aws_iam_policy.codebuild_policy</text>
</g>
<!-- [root] aws_iam_policy.codebuild_policy&#45;&gt;[root] aws_ecr_repository.image_repo -->
<g id="edge18" class="edge">
<title>[root] aws_iam_policy.codebuild_policy&#45;&gt;[root] aws_ecr_repository.image_repo</title>
<path fill="none" stroke="black" d="M547.68,-287.87C530.61,-263.14 498.93,-217.24 479.11,-188.51"/>
<polygon fill="black" stroke="black" points="481.92,-186.43 473.36,-180.19 476.16,-190.41 481.92,-186.43"/>
</g>
<!-- [root] aws_iam_policy.codebuild_policy&#45;&gt;[root] aws_s3_bucket.artifact_bucket -->
<g id="edge19" class="edge">
<title>[root] aws_iam_policy.codebuild_policy&#45;&gt;[root] aws_s3_bucket.artifact_bucket</title>
<path fill="none" stroke="black" d="M607.68,-287.97C635.35,-278.19 670.28,-265.84 699.45,-255.52"/>
<polygon fill="black" stroke="black" points="700.84,-258.74 709.1,-252.11 698.51,-252.14 700.84,-258.74"/>
</g>
<!-- [root] aws_iam_policy.codepipeline_policy -->
<g id="node8" class="node">
<title>[root] aws_iam_policy.codepipeline_policy</title>
<polygon fill="none" stroke="black" points="1204.5,-324 986.5,-324 986.5,-288 1204.5,-288 1204.5,-324"/>
<text text-anchor="middle" x="1095.5" y="-302.3" font-family="Times,serif" font-size="14.00">aws_iam_policy.codepipeline_policy</text>
</g>
<!-- [root] aws_iam_policy.codepipeline_policy&#45;&gt;[root] aws_codecommit_repository.source_repo -->
<g id="edge20" class="edge">
<title>[root] aws_iam_policy.codepipeline_policy&#45;&gt;[root] aws_codecommit_repository.source_repo</title>
<path fill="none" stroke="black" d="M1092.73,-287.87C1088.81,-263.67 1081.6,-219.21 1076.94,-190.39"/>
<polygon fill="black" stroke="black" points="1080.34,-189.5 1075.28,-180.19 1073.43,-190.62 1080.34,-189.5"/>
</g>
<!-- [root] aws_iam_policy.codepipeline_policy&#45;&gt;[root] aws_s3_bucket.artifact_bucket -->
<g id="edge21" class="edge">
<title>[root] aws_iam_policy.codepipeline_policy&#45;&gt;[root] aws_s3_bucket.artifact_bucket</title>
<path fill="none" stroke="black" d="M1013.25,-287.97C963.88,-277.74 900.95,-264.71 849.88,-254.13"/>
<polygon fill="black" stroke="black" points="850.33,-250.65 839.83,-252.05 848.91,-257.51 850.33,-250.65"/>
</g>
<!-- [root] aws_iam_policy.trigger_policy -->
<g id="node9" class="node">
<title>[root] aws_iam_policy.trigger_policy</title>
<polygon fill="none" stroke="black" points="962,-396 777,-396 777,-360 962,-360 962,-396"/>
<text text-anchor="middle" x="869.5" y="-374.3" font-family="Times,serif" font-size="14.00">aws_iam_policy.trigger_policy</text>
</g>
<!-- [root] aws_iam_policy.trigger_policy&#45;&gt;[root] aws_codepipeline.pipeline -->
<g id="edge22" class="edge">
<title>[root] aws_iam_policy.trigger_policy&#45;&gt;[root] aws_codepipeline.pipeline</title>
<path fill="none" stroke="black" d="M871.72,-359.7C872.72,-351.98 873.91,-342.71 875.01,-334.11"/>
<polygon fill="black" stroke="black" points="878.5,-334.47 876.3,-324.1 871.55,-333.58 878.5,-334.47"/>
</g>
<!-- [root] aws_iam_role.codebuild_role&#45;&gt;[root] provider.aws -->
<g id="edge23" class="edge">
<title>[root] aws_iam_role.codebuild_role&#45;&gt;[root] provider.aws</title>
<path fill="none" stroke="black" d="M752.51,-146.06C757.24,-145.34 761.92,-144.65 766.5,-144 899.89,-125.03 934.38,-128.79 1067.5,-108 1080.12,-106.03 1093.69,-103.58 1106.3,-101.15"/>
<polygon fill="black" stroke="black" points="1107.04,-104.57 1116.18,-99.22 1105.69,-97.7 1107.04,-104.57"/>
</g>
<!-- [root] aws_iam_role.codepipeline_role&#45;&gt;[root] provider.aws -->
<g id="edge24" class="edge">
<title>[root] aws_iam_role.codepipeline_role&#45;&gt;[root] provider.aws</title>
<path fill="none" stroke="black" d="M1452.72,-215.89C1438.96,-205.77 1421.46,-192.52 1406.5,-180 1388.41,-164.86 1388.26,-155.21 1367.5,-144 1320.27,-118.49 1260.5,-104.99 1216.46,-98.02"/>
<polygon fill="black" stroke="black" points="1216.89,-94.54 1206.48,-96.5 1215.84,-101.46 1216.89,-94.54"/>
</g>
<!-- [root] aws_iam_role.trigger_role&#45;&gt;[root] provider.aws -->
<g id="edge25" class="edge">
<title>[root] aws_iam_role.trigger_role&#45;&gt;[root] provider.aws</title>
<path fill="none" stroke="black" d="M1414.92,-144.41C1349.67,-130.98 1259.83,-112.48 1204.82,-101.15"/>
<polygon fill="black" stroke="black" points="1205.46,-97.71 1194.96,-99.12 1204.05,-104.57 1205.46,-97.71"/>
</g>
<!-- [root] aws_iam_role_policy_attachment.codebuild&#45;attach -->
<g id="node13" class="node">
<title>[root] aws_iam_role_policy_attachment.codebuild&#45;attach</title>
<polygon fill="none" stroke="black" points="670.5,-468 376.5,-468 376.5,-432 670.5,-432 670.5,-468"/>
<text text-anchor="middle" x="523.5" y="-446.3" font-family="Times,serif" font-size="14.00">aws_iam_role_policy_attachment.codebuild&#45;attach</text>
</g>
<!-- [root] aws_iam_role_policy_attachment.codebuild&#45;attach&#45;&gt;[root] aws_iam_policy.codebuild_policy -->
<g id="edge26" class="edge">
<title>[root] aws_iam_role_policy_attachment.codebuild&#45;attach&#45;&gt;[root] aws_iam_policy.codebuild_policy</title>
<path fill="none" stroke="black" d="M527.84,-431.87C534,-407.56 545.35,-362.82 552.65,-334.01"/>
<polygon fill="black" stroke="black" points="556.08,-334.74 555.14,-324.19 549.29,-333.02 556.08,-334.74"/>
</g>
<!-- [root] aws_iam_role_policy_attachment.codebuild&#45;attach&#45;&gt;[root] aws_iam_role.codebuild_role -->
<g id="edge27" class="edge">
<title>[root] aws_iam_role_policy_attachment.codebuild&#45;attach&#45;&gt;[root] aws_iam_role.codebuild_role</title>
<path fill="none" stroke="black" d="M557.23,-431.86C592.94,-411.6 647.3,-374.17 670.5,-324 677.21,-309.48 673.45,-303.73 670.5,-288 667.33,-271.13 659.67,-268.87 656.5,-252 653.55,-236.27 655.45,-231.97 656.5,-216 657.06,-207.53 658.11,-198.36 659.23,-190.06"/>
<polygon fill="black" stroke="black" points="662.7,-190.53 660.66,-180.13 655.77,-189.53 662.7,-190.53"/>
</g>
<!-- [root] aws_iam_role_policy_attachment.codepipeline&#45;attach -->
<g id="node14" class="node">
<title>[root] aws_iam_role_policy_attachment.codepipeline&#45;attach</title>
<polygon fill="none" stroke="black" points="1573.5,-396 1263.5,-396 1263.5,-360 1573.5,-360 1573.5,-396"/>
<text text-anchor="middle" x="1418.5" y="-374.3" font-family="Times,serif" font-size="14.00">aws_iam_role_policy_attachment.codepipeline&#45;attach</text>
</g>
<!-- [root] aws_iam_role_policy_attachment.codepipeline&#45;attach&#45;&gt;[root] aws_iam_policy.codepipeline_policy -->
<g id="edge28" class="edge">
<title>[root] aws_iam_role_policy_attachment.codepipeline&#45;attach&#45;&gt;[root] aws_iam_policy.codepipeline_policy</title>
<path fill="none" stroke="black" d="M1339.9,-359.97C1292.82,-349.76 1232.84,-336.76 1184.08,-326.2"/>
<polygon fill="black" stroke="black" points="1184.69,-322.75 1174.17,-324.05 1183.21,-329.59 1184.69,-322.75"/>
</g>
<!-- [root] aws_iam_role_policy_attachment.codepipeline&#45;attach&#45;&gt;[root] aws_iam_role.codepipeline_role -->
<g id="edge29" class="edge">
<title>[root] aws_iam_role_policy_attachment.codepipeline&#45;attach&#45;&gt;[root] aws_iam_role.codepipeline_role</title>
<path fill="none" stroke="black" d="M1425.5,-359.87C1435.47,-335.46 1453.86,-290.43 1465.62,-261.64"/>
<polygon fill="black" stroke="black" points="1468.94,-262.77 1469.48,-252.19 1462.46,-260.12 1468.94,-262.77"/>
</g>
<!-- [root] aws_iam_role_policy_attachment.trigger&#45;attach -->
<g id="node15" class="node">
<title>[root] aws_iam_role_policy_attachment.trigger&#45;attach</title>
<polygon fill="none" stroke="black" points="1180,-468 903,-468 903,-432 1180,-432 1180,-468"/>
<text text-anchor="middle" x="1041.5" y="-446.3" font-family="Times,serif" font-size="14.00">aws_iam_role_policy_attachment.trigger&#45;attach</text>
</g>
<!-- [root] aws_iam_role_policy_attachment.trigger&#45;attach&#45;&gt;[root] aws_iam_policy.trigger_policy -->
<g id="edge30" class="edge">
<title>[root] aws_iam_role_policy_attachment.trigger&#45;attach&#45;&gt;[root] aws_iam_policy.trigger_policy</title>
<path fill="none" stroke="black" d="M999.42,-431.88C975.7,-422.22 945.88,-410.09 920.8,-399.88"/>
<polygon fill="black" stroke="black" points="922.02,-396.6 911.44,-396.07 919.38,-403.08 922.02,-396.6"/>
</g>
<!-- [root] aws_iam_role_policy_attachment.trigger&#45;attach&#45;&gt;[root] aws_iam_role.trigger_role -->
<g id="edge31" class="edge">
<title>[root] aws_iam_role_policy_attachment.trigger&#45;attach&#45;&gt;[root] aws_iam_role.trigger_role</title>
<path fill="none" stroke="black" d="M1180.14,-432.98C1183.29,-432.64 1186.41,-432.32 1189.5,-432 1233.12,-427.5 1552.94,-428.39 1582.5,-396 1636.43,-336.91 1621.68,-285.75 1582.5,-216 1575.25,-203.1 1563.44,-192.96 1550.83,-185.17"/>
<polygon fill="black" stroke="black" points="1552.44,-182.06 1542.02,-180.15 1548.97,-188.14 1552.44,-182.06"/>
</g>
<!-- [root] aws_s3_bucket.artifact_bucket&#45;&gt;[root] provider.aws -->
<g id="edge32" class="edge">
<title>[root] aws_s3_bucket.artifact_bucket&#45;&gt;[root] provider.aws</title>
<path fill="none" stroke="black" d="M760.52,-215.79C765.1,-195.17 775.92,-161.25 799.5,-144 847.99,-108.52 1008.2,-117.7 1067.5,-108 1080.1,-105.94 1093.67,-103.45 1106.28,-101.02"/>
<polygon fill="black" stroke="black" points="1107.01,-104.45 1116.16,-99.1 1105.68,-97.58 1107.01,-104.45"/>
</g>
<!-- [root] data.aws_caller_identity.current -->
<g id="node17" class="node">
<title>[root] data.aws_caller_identity.current</title>
<polygon fill="none" stroke="black" points="1388.5,-468 1198.5,-468 1198.5,-432 1388.5,-432 1388.5,-468"/>
<text text-anchor="middle" x="1293.5" y="-446.3" font-family="Times,serif" font-size="14.00">data.aws_caller_identity.current</text>
</g>
<!-- [root] data.aws_caller_identity.current&#45;&gt;[root] provider.aws -->
<g id="edge33" class="edge">
<title>[root] data.aws_caller_identity.current&#45;&gt;[root] provider.aws</title>
<path fill="none" stroke="black" d="M1388.52,-443.55C1468.86,-437.09 1575.93,-423.5 1608.5,-396 1640.51,-368.98 1639.5,-348.89 1639.5,-307 1639.5,-307 1639.5,-307 1639.5,-233 1639.5,-186.73 1624.35,-169.12 1585.5,-144 1529.21,-107.6 1342.83,-96.19 1234.82,-92.62"/>
<polygon fill="black" stroke="black" points="1234.72,-89.12 1224.62,-92.3 1234.5,-96.12 1234.72,-89.12"/>
</g>
<!-- [root] output.image_repo_arn -->
<g id="node18" class="node">
<title>[root] output.image_repo_arn</title>
<polygon fill="none" stroke="black" points="209,-324 72,-324 72,-288 215,-288 215,-318 209,-324"/>
<polyline fill="none" stroke="black" points="209,-324 209,-318 "/>
<polyline fill="none" stroke="black" points="215,-318 209,-318 "/>
<text text-anchor="middle" x="143.5" y="-302.3" font-family="Times,serif" font-size="14.00">output.image_repo_arn</text>
</g>
<!-- [root] output.image_repo_arn&#45;&gt;[root] aws_ecr_repository.image_repo -->
<g id="edge44" class="edge">
<title>[root] output.image_repo_arn&#45;&gt;[root] aws_ecr_repository.image_repo</title>
<path fill="none" stroke="black" d="M181.86,-287.87C239.99,-261.91 350.33,-212.64 413.64,-184.37"/>
<polygon fill="black" stroke="black" points="415.3,-187.46 423.01,-180.19 412.45,-181.07 415.3,-187.46"/>
</g>
<!-- [root] output.image_repo_url -->
<g id="node19" class="node">
<title>[root] output.image_repo_url</title>
<polygon fill="none" stroke="black" points="135,-396 0,-396 0,-360 141,-360 141,-390 135,-396"/>
<polyline fill="none" stroke="black" points="135,-396 135,-390 "/>
<polyline fill="none" stroke="black" points="141,-390 135,-390 "/>
<text text-anchor="middle" x="70.5" y="-374.3" font-family="Times,serif" font-size="14.00">output.image_repo_url</text>
</g>
<!-- [root] output.image_repo_url&#45;&gt;[root] aws_ecr_repository.image_repo -->
<g id="edge45" class="edge">
<title>[root] output.image_repo_url&#45;&gt;[root] aws_ecr_repository.image_repo</title>
<path fill="none" stroke="black" d="M62.88,-359.9C55.56,-340.62 47.62,-309.21 62.5,-288 96.58,-239.43 249.84,-201.92 356.17,-181.15"/>
<polygon fill="black" stroke="black" points="357.15,-184.52 366.31,-179.19 355.83,-177.65 357.15,-184.52"/>
</g>
<!-- [root] output.pipeline_url -->
<g id="node20" class="node">
<title>[root] output.pipeline_url</title>
<polygon fill="none" stroke="black" points="802.5,-468 688.5,-468 688.5,-432 808.5,-432 808.5,-462 802.5,-468"/>
<polyline fill="none" stroke="black" points="802.5,-468 802.5,-462 "/>
<polyline fill="none" stroke="black" points="808.5,-462 802.5,-462 "/>
<text text-anchor="middle" x="748.5" y="-446.3" font-family="Times,serif" font-size="14.00">output.pipeline_url</text>
</g>
<!-- [root] output.pipeline_url&#45;&gt;[root] aws_codepipeline.pipeline -->
<g id="edge46" class="edge">
<title>[root] output.pipeline_url&#45;&gt;[root] aws_codepipeline.pipeline</title>
<path fill="none" stroke="black" d="M748.11,-431.72C748.55,-412.27 752.05,-380.71 768.5,-360 779.3,-346.4 794.46,-336.08 810.07,-328.33"/>
<polygon fill="black" stroke="black" points="811.69,-331.44 819.29,-324.06 808.74,-325.09 811.69,-331.44"/>
</g>
<!-- [root] output.source_repo_clone_url_http -->
<g id="node21" class="node">
<title>[root] output.source_repo_clone_url_http</title>
<polygon fill="none" stroke="black" points="433.5,-324 233.5,-324 233.5,-288 439.5,-288 439.5,-318 433.5,-324"/>
<polyline fill="none" stroke="black" points="433.5,-324 433.5,-318 "/>
<polyline fill="none" stroke="black" points="439.5,-318 433.5,-318 "/>
<text text-anchor="middle" x="336.5" y="-302.3" font-family="Times,serif" font-size="14.00">output.source_repo_clone_url_http</text>
</g>
<!-- [root] output.source_repo_clone_url_http&#45;&gt;[root] aws_codecommit_repository.source_repo -->
<g id="edge47" class="edge">
<title>[root] output.source_repo_clone_url_http&#45;&gt;[root] aws_codecommit_repository.source_repo</title>
<path fill="none" stroke="black" d="M388.59,-287.98C451.46,-268.04 560.68,-235.27 656.5,-216 778.49,-191.47 813.12,-195.96 940.66,-180.09"/>
<polygon fill="black" stroke="black" points="941.34,-183.53 950.82,-178.8 940.46,-176.59 941.34,-183.53"/>
</g>
<!-- [root] var.aws_profile -->
<g id="node24" class="node">
<title>[root] var.aws_profile</title>
<polygon fill="none" stroke="black" points="1140.5,-36 1046.5,-36 1046.5,0 1146.5,0 1146.5,-30 1140.5,-36"/>
<polyline fill="none" stroke="black" points="1140.5,-36 1140.5,-30 "/>
<polyline fill="none" stroke="black" points="1146.5,-30 1140.5,-30 "/>
<text text-anchor="middle" x="1096.5" y="-14.3" font-family="Times,serif" font-size="14.00">var.aws_profile</text>
</g>
<!-- [root] provider.aws&#45;&gt;[root] var.aws_profile -->
<g id="edge53" class="edge">
<title>[root] provider.aws&#45;&gt;[root] var.aws_profile</title>
<path fill="none" stroke="black" d="M1143.28,-74.5C1135.87,-65.71 1126.23,-54.27 1117.62,-44.06"/>
<polygon fill="black" stroke="black" points="1120.12,-41.59 1111,-36.2 1114.77,-46.11 1120.12,-41.59"/>
</g>
<!-- [root] var.aws_region -->
<g id="node25" class="node">
<title>[root] var.aws_region</title>
<polygon fill="none" stroke="black" points="1258,-36 1165,-36 1165,0 1264,0 1264,-30 1258,-36"/>
<polyline fill="none" stroke="black" points="1258,-36 1258,-30 "/>
<polyline fill="none" stroke="black" points="1264,-30 1258,-30 "/>
<text text-anchor="middle" x="1214.5" y="-14.3" font-family="Times,serif" font-size="14.00">var.aws_region</text>
</g>
<!-- [root] provider.aws&#45;&gt;[root] var.aws_region -->
<g id="edge54" class="edge">
<title>[root] provider.aws&#45;&gt;[root] var.aws_region</title>
<path fill="none" stroke="black" d="M1167.72,-74.5C1175.13,-65.71 1184.77,-54.27 1193.38,-44.06"/>
<polygon fill="black" stroke="black" points="1196.23,-46.11 1200,-36.2 1190.88,-41.59 1196.23,-46.11"/>
</g>
<!-- [root] var.aws_ecr -->
<g id="node23" class="node">
<title>[root] var.aws_ecr</title>
<polygon fill="none" stroke="black" points="314,-468 239,-468 239,-432 320,-432 320,-462 314,-468"/>
<polyline fill="none" stroke="black" points="314,-468 314,-462 "/>
<polyline fill="none" stroke="black" points="320,-462 314,-462 "/>
<text text-anchor="middle" x="279.5" y="-446.3" font-family="Times,serif" font-size="14.00">var.aws_ecr</text>
</g>
<!-- [root] meta.count&#45;boundary (EachMode fixup) -->
<g id="node30" class="node">
<title>[root] meta.count&#45;boundary (EachMode fixup)</title>
<ellipse fill="none" stroke="black" cx="748.5" cy="-522" rx="176.27" ry="18"/>
<text text-anchor="middle" x="748.5" y="-518.3" font-family="Times,serif" font-size="14.00">[root] meta.count&#45;boundary (EachMode fixup)</text>
</g>
<!-- [root] meta.count&#45;boundary (EachMode fixup)&#45;&gt;[root] aws_cloudwatch_event_target.target_pipeline -->
<g id="edge34" class="edge">
<title>[root] meta.count&#45;boundary (EachMode fixup)&#45;&gt;[root] aws_cloudwatch_event_target.target_pipeline</title>
<path fill="none" stroke="black" d="M771.06,-504.05C784.63,-493.76 802.18,-480.29 817.5,-468 836.94,-452.41 838.08,-442.89 860.5,-432 894.37,-415.55 933.23,-404.19 970.13,-396.34"/>
<polygon fill="black" stroke="black" points="970.88,-399.76 979.97,-394.32 969.47,-392.91 970.88,-399.76"/>
</g>
<!-- [root] meta.count&#45;boundary (EachMode fixup)&#45;&gt;[root] aws_iam_role_policy_attachment.codebuild&#45;attach -->
<g id="edge35" class="edge">
<title>[root] meta.count&#45;boundary (EachMode fixup)&#45;&gt;[root] aws_iam_role_policy_attachment.codebuild&#45;attach</title>
<path fill="none" stroke="black" d="M696.31,-504.76C664.06,-494.73 622.41,-481.77 588.08,-471.09"/>
<polygon fill="black" stroke="black" points="588.73,-467.63 578.15,-468 586.65,-474.31 588.73,-467.63"/>
</g>
<!-- [root] meta.count&#45;boundary (EachMode fixup)&#45;&gt;[root] aws_iam_role_policy_attachment.codepipeline&#45;attach -->
<g id="edge36" class="edge">
<title>[root] meta.count&#45;boundary (EachMode fixup)&#45;&gt;[root] aws_iam_role_policy_attachment.codepipeline&#45;attach</title>
<path fill="none" stroke="black" d="M786.28,-504.41C806.57,-494.85 831.62,-481.98 852.5,-468 872.93,-454.32 871.9,-441.67 894.5,-432 1039.31,-370.07 1092.35,-410.55 1252.89,-396.1"/>
<polygon fill="black" stroke="black" points="1253.5,-399.56 1263.12,-395.12 1252.83,-392.59 1253.5,-399.56"/>
</g>
<!-- [root] meta.count&#45;boundary (EachMode fixup)&#45;&gt;[root] aws_iam_role_policy_attachment.trigger&#45;attach -->
<g id="edge37" class="edge">
<title>[root] meta.count&#45;boundary (EachMode fixup)&#45;&gt;[root] aws_iam_role_policy_attachment.trigger&#45;attach</title>
<path fill="none" stroke="black" d="M814.25,-505.29C857.48,-494.96 914.35,-481.38 960.38,-470.38"/>
<polygon fill="black" stroke="black" points="961.42,-473.73 970.33,-468 959.79,-466.92 961.42,-473.73"/>
</g>
<!-- [root] meta.count&#45;boundary (EachMode fixup)&#45;&gt;[root] data.aws_caller_identity.current -->
<g id="edge38" class="edge">
<title>[root] meta.count&#45;boundary (EachMode fixup)&#45;&gt;[root] data.aws_caller_identity.current</title>
<path fill="none" stroke="black" d="M864.74,-508.39C951.24,-498.69 1072.46,-484.42 1188.2,-468.15"/>
<polygon fill="black" stroke="black" points="1188.9,-471.59 1198.31,-466.73 1187.92,-464.66 1188.9,-471.59"/>
</g>
<!-- [root] meta.count&#45;boundary (EachMode fixup)&#45;&gt;[root] output.image_repo_arn -->
<g id="edge39" class="edge">
<title>[root] meta.count&#45;boundary (EachMode fixup)&#45;&gt;[root] output.image_repo_arn</title>
<path fill="none" stroke="black" d="M572.8,-520.43C444.66,-516.84 284.26,-504.74 229.5,-468 182.8,-436.66 159.52,-371.39 149.63,-334.3"/>
<polygon fill="black" stroke="black" points="152.92,-333.04 147.08,-324.2 146.13,-334.76 152.92,-333.04"/>
</g>
<!-- [root] meta.count&#45;boundary (EachMode fixup)&#45;&gt;[root] output.image_repo_url -->
<g id="edge40" class="edge">
<title>[root] meta.count&#45;boundary (EachMode fixup)&#45;&gt;[root] output.image_repo_url</title>
<path fill="none" stroke="black" d="M578.51,-517.23C434.52,-511.88 240.5,-499.01 169.5,-468 137.34,-453.95 108.5,-425.26 90.36,-404.23"/>
<polygon fill="black" stroke="black" points="92.82,-401.73 83.72,-396.32 87.46,-406.23 92.82,-401.73"/>
</g>
<!-- [root] meta.count&#45;boundary (EachMode fixup)&#45;&gt;[root] output.pipeline_url -->
<g id="edge41" class="edge">
<title>[root] meta.count&#45;boundary (EachMode fixup)&#45;&gt;[root] output.pipeline_url</title>
<path fill="none" stroke="black" d="M748.5,-503.7C748.5,-495.98 748.5,-486.71 748.5,-478.11"/>
<polygon fill="black" stroke="black" points="752,-478.1 748.5,-468.1 745,-478.1 752,-478.1"/>
</g>
<!-- [root] meta.count&#45;boundary (EachMode fixup)&#45;&gt;[root] output.source_repo_clone_url_http -->
<g id="edge42" class="edge">
<title>[root] meta.count&#45;boundary (EachMode fixup)&#45;&gt;[root] output.source_repo_clone_url_http</title>
<path fill="none" stroke="black" d="M580.48,-516.52C493.19,-510.6 398.41,-497.34 367.5,-468 331.21,-433.54 330.14,-370.48 333.04,-334.35"/>
<polygon fill="black" stroke="black" points="336.55,-334.36 334.03,-324.07 329.58,-333.68 336.55,-334.36"/>
</g>
<!-- [root] meta.count&#45;boundary (EachMode fixup)&#45;&gt;[root] var.aws_ecr -->
<g id="edge43" class="edge">
<title>[root] meta.count&#45;boundary (EachMode fixup)&#45;&gt;[root] var.aws_ecr</title>
<path fill="none" stroke="black" d="M616.99,-510.01C535.13,-501.73 427.98,-488.27 334.5,-468 333.03,-467.68 331.55,-467.34 330.06,-466.99"/>
<polygon fill="black" stroke="black" points="330.7,-463.54 320.14,-464.42 328.94,-470.31 330.7,-463.54"/>
</g>
<!-- [root] provider.aws (close) -->
<g id="node31" class="node">
<title>[root] provider.aws (close)</title>
<ellipse fill="none" stroke="black" cx="1170.5" cy="-522" rx="104.78" ry="18"/>
<text text-anchor="middle" x="1170.5" y="-518.3" font-family="Times,serif" font-size="14.00">[root] provider.aws (close)</text>
</g>
<!-- [root] provider.aws (close)&#45;&gt;[root] aws_cloudwatch_event_target.target_pipeline -->
<g id="edge48" class="edge">
<title>[root] provider.aws (close)&#45;&gt;[root] aws_cloudwatch_event_target.target_pipeline</title>
<path fill="none" stroke="black" d="M1265.15,-514.29C1344.98,-505 1439.98,-483.11 1397.5,-432 1387.61,-420.1 1321.49,-407.41 1255.43,-397.43"/>
<polygon fill="black" stroke="black" points="1255.67,-393.93 1245.27,-395.91 1254.64,-400.85 1255.67,-393.93"/>
</g>
<!-- [root] provider.aws (close)&#45;&gt;[root] aws_iam_role_policy_attachment.codebuild&#45;attach -->
<g id="edge49" class="edge">
<title>[root] provider.aws (close)&#45;&gt;[root] aws_iam_role_policy_attachment.codebuild&#45;attach</title>
<path fill="none" stroke="black" d="M1084.46,-511.74C988.63,-501.42 828.8,-484.19 681.05,-468.17"/>
<polygon fill="black" stroke="black" points="681.21,-464.66 670.89,-467.07 680.45,-471.62 681.21,-464.66"/>
</g>
<!-- [root] provider.aws (close)&#45;&gt;[root] aws_iam_role_policy_attachment.codepipeline&#45;attach -->
<g id="edge50" class="edge">
<title>[root] provider.aws (close)&#45;&gt;[root] aws_iam_role_policy_attachment.codepipeline&#45;attach</title>
<path fill="none" stroke="black" d="M1261.65,-513.06C1323.21,-505.6 1396.74,-491.91 1416.5,-468 1430.52,-451.03 1429.56,-425.4 1425.95,-406"/>
<polygon fill="black" stroke="black" points="1429.37,-405.25 1423.82,-396.22 1422.53,-406.74 1429.37,-405.25"/>
</g>
<!-- [root] provider.aws (close)&#45;&gt;[root] aws_iam_role_policy_attachment.trigger&#45;attach -->
<g id="edge51" class="edge">
<title>[root] provider.aws (close)&#45;&gt;[root] aws_iam_role_policy_attachment.trigger&#45;attach</title>
<path fill="none" stroke="black" d="M1140.26,-504.59C1122.85,-495.14 1100.75,-483.15 1081.88,-472.91"/>
<polygon fill="black" stroke="black" points="1083.36,-469.73 1072.9,-468.04 1080.02,-475.89 1083.36,-469.73"/>
</g>
<!-- [root] provider.aws (close)&#45;&gt;[root] data.aws_caller_identity.current -->
<g id="edge52" class="edge">
<title>[root] provider.aws (close)&#45;&gt;[root] data.aws_caller_identity.current</title>
<path fill="none" stroke="black" d="M1199.34,-504.59C1215.78,-495.23 1236.62,-483.37 1254.51,-473.19"/>
<polygon fill="black" stroke="black" points="1256.6,-476.03 1263.56,-468.04 1253.14,-469.94 1256.6,-476.03"/>
</g>
<!-- [root] root -->
<g id="node32" class="node">
<title>[root] root</title>
<ellipse fill="none" stroke="black" cx="897.5" cy="-594" rx="47.39" ry="18"/>
<text text-anchor="middle" x="897.5" y="-590.3" font-family="Times,serif" font-size="14.00">[root] root</text>
</g>
<!-- [root] root&#45;&gt;[root] meta.count&#45;boundary (EachMode fixup) -->
<g id="edge55" class="edge">
<title>[root] root&#45;&gt;[root] meta.count&#45;boundary (EachMode fixup)</title>
<path fill="none" stroke="black" d="M868.77,-579.5C847.33,-569.43 817.62,-555.47 793.09,-543.95"/>
<polygon fill="black" stroke="black" points="794.52,-540.75 783.98,-539.67 791.54,-547.09 794.52,-540.75"/>
</g>
<!-- [root] root&#45;&gt;[root] provider.aws (close) -->
<g id="edge56" class="edge">
<title>[root] root&#45;&gt;[root] provider.aws (close)</title>
<path fill="none" stroke="black" d="M935.75,-583.19C979.52,-571.97 1051.96,-553.39 1104.82,-539.84"/>
<polygon fill="black" stroke="black" points="1105.96,-543.16 1114.78,-537.29 1104.22,-536.38 1105.96,-543.16"/>
</g>
</g>
</svg>
